<svg xmlns="http://www.w3.org/2000/svg" xmlns:xlink="http://www.w3.org/1999/xlink" width="238.441" height="85.281" viewBox="0 0 238.441 85.281"><defs><style>.a{fill:#f7f7f7;}.a,.b{fill-rule:evenodd;}.b{fill:url(#a);}</style><linearGradient id="a" y1="0.213" x2="0.736" y2="0.813" gradientUnits="objectBoundingBox"><stop offset="0" stop-color="#9c1de7"/><stop offset="0.485" stop-color="#ff073a"/><stop offset="1" stop-color="#f7f7f7"/></linearGradient></defs><g transform="translate(-307.792 41.002)"><path class="a" d="M343.9,397.968h14.979l.175.175v26.015q0,2.8,1.877,3.593h9.078c1.293,0,2.038-1.169,2.22-3.506v-26.1l.175-.175H387.3l.168.175V427.5q0,4.557-5.3,8.048a14.028,14.028,0,0,1-7.362,1.8H356.486q-8.873,0-12.241-7.362a12.839,12.839,0,0,1-.511-3.593V398.143Zm57.028,0h20.026q5.28,0,9.414,4.8a10.313,10.313,0,0,1,1.884,6.42v1.366l-.168.168H417.107l-.175-.168c0-2.023-.394-3.221-1.2-3.593a3.8,3.8,0,0,0-2.22-.511h-4.878q-3.769,0-3.769,2.476v.088a2.24,2.24,0,0,0,1.629,2.228q17.178,2.673,20.537,3.761,6.332,2.147,6.332,7.617V427.5q0,4.557-5.3,8.048a14.028,14.028,0,0,1-7.362,1.8H402.383q-8.873,0-12.241-7.362a12.84,12.84,0,0,1-.511-3.593v-2.994l.168-.175h14.979l.175.175v.686c0,2.454,1.337,3.674,4.017,3.674h5.821c1.76,0,2.9-.65,3.426-1.965v-.854q0-1.8-2.994-2.571-16.005-2.4-19.77-3.681-4.371-1.8-5.39-4.535a8.159,8.159,0,0,1-.431-2.827v-2.476q0-7.559,8.384-10.444a12.849,12.849,0,0,1,2.914-.431Zm33.774,0h44.85l.175.175v8.129l-.175.175H464.662v30.725l-.168.168H449.859l-.175-.168V406.447H434.7l-.168-.175v-8.129Zm48.06.088h14.556l.168.175v38.942l-.168.168H482.763l-.168-.168V398.231Zm29.034-.088h21.224q4.941,0,8.99,4.28a8.913,8.913,0,0,1,2.22,5.31v5.3l-.168.175H529.172L529,412.86v-2.651c0-2.512-.825-3.761-2.476-3.761H518.3c-1.658,0-2.483,1.249-2.483,3.761v13.949q0,2.8,1.877,3.593h9.078c1.293,0,2.038-1.169,2.22-3.506V419.8l.175-.175h14.892l.168.175v7.7q0,4.557-5.3,8.048a14.028,14.028,0,0,1-7.362,1.8H513.25q-8.874,0-12.241-7.362a12.839,12.839,0,0,1-.511-3.593V408.843q0-7.625,8.472-10.444a10.867,10.867,0,0,1,2.826-.431Z" transform="translate(2.001 -393.062)"/><g transform="translate(307.792 -41.002)"><path class="b" d="M133.372,174.745l26.554,15.331v15.54l-12.533,7.227,12.533,7.254v15.37l-26.554-15.331,0-14.707,13.051-7.553-13.049-7.525-12.652,7.305V227.44l-13.9,8.026v-45.39Z" transform="translate(-106.819 -174.745)"/></g></g></svg>